<svg xmlns="http://www.w3.org/2000/svg" width="654" height="263" viewBox="0 0 173 69.6"><path fill="#e6e6e5" d="M167 11.1h-2.4a.5.5 0 0 1 0-1h2.4a.5.5 0 0 1 0 1zm-10.4 0H154a.5.5 0 0 1 0-1h2.6a.5.5 0 0 1 0 1zm-10.6 0h-2.6a.5.5 0 0 1 0-1h2.6a.5.5 0 0 1 0 1zm-10.5 0h-2.7a.5.5 0 0 1 0-1h2.7a.5.5 0 0 1 0 1zm-10.6 0h-2.7a.5.5 0 0 1 0-1h2.7a.5.5 0 0 1 0 1zm-10.6 0h-2.6a.5.5 0 0 1 0-1h2.6a.5.5 0 0 1 0 1zm-10.6 0h-2.6a.5.5 0 0 1 0-1h2.6a.5.5 0 0 1 0 1zm-10.6 0h-2.6a.5.5 0 0 1 0-1H93a.5.5 0 0 1 0 1zm-10.6 0H80a.5.5 0 0 1 0-1h2.6a.5.5 0 0 1 0 1zm-10.5 0h-2.7a.5.5 0 0 1 0-1H72a.5.5 0 0 1 0 1zm-10.6 0h-2.7a.5.5 0 0 1 0-1h2.7a.5.5 0 0 1 0 1zm-10.6 0h-2.6a.5.5 0 0 1 0-1h2.6a.5.5 0 0 1 0 1zm-10.6 0h-2.6a.5.5 0 0 1 0-1h2.6a.5.5 0 0 1 0 1zm-10.6 0H27a.5.5 0 0 1 0-1h2.6a.5.5 0 0 1 0 1zm-10.6 0h-2.6a.5.5 0 0 1 0-1H19a.5.5 0 0 1 0 1zm-10.5 0H5.8a.5.5 0 0 1 0-1h2.7a.5.5 0 0 1 0 1z"/><path fill="#e6e6e5" d="M167 1h-2.4a.5.5 0 0 1 0-1h2.4a.5.5 0 0 1 0 1zm-10.4 0H154a.5.5 0 0 1 0-1h2.6a.5.5 0 0 1 0 1zM146 1h-2.6a.5.5 0 0 1 0-1h2.6a.5.5 0 0 1 0 1zm-10.5 0h-2.7a.5.5 0 0 1 0-1h2.7a.5.5 0 0 1 0 1zm-10.6 0h-2.7a.5.5 0 0 1 0-1h2.7a.5.5 0 0 1 0 1zm-10.6 0h-2.6a.5.5 0 0 1 0-1h2.6a.5.5 0 0 1 0 1zm-10.6 0h-2.6a.5.5 0 0 1 0-1h2.6a.5.5 0 0 1 0 1zM93.1 1h-2.6a.5.5 0 0 1 0-1H93a.5.5 0 0 1 0 1zM82.5 1H80a.5.5 0 0 1 0-1h2.6a.5.5 0 0 1 0 1zM72 1h-2.7a.5.5 0 0 1 0-1H72a.5.5 0 0 1 0 1zM61.4 1h-2.7a.5.5 0 0 1 0-1h2.7a.5.5 0 0 1 0 1zM50.8 1h-2.6a.5.5 0 0 1 0-1h2.6a.5.5 0 0 1 0 1zM40.2 1h-2.6a.5.5 0 0 1 0-1h2.6a.5.5 0 0 1 0 1zM29.6 1H27a.5.5 0 0 1 0-1h2.6a.5.5 0 0 1 0 1zM19 1h-2.6a.5.5 0 0 1 0-1H19a.5.5 0 0 1 0 1zM8.5 1H5.8a.5.5 0 0 1 0-1h2.7a.5.5 0 0 1 0 1z" opacity=".3"/><path fill="#e6e6e5" d="M172.5 15.6H170a.5.5 0 0 1 0-1h2.6a.5.5 0 0 1 0 1zm-10.6 0h-2.6a.5.5 0 0 1 0-1h2.6a.5.5 0 0 1 0 1zm-10.6 0h-2.6a.5.5 0 0 1 0-1h2.6a.5.5 0 0 1 0 1zm-10.5 0H138a.5.5 0 0 1 0-1h2.7a.5.5 0 0 1 0 1zm-10.6 0h-2.7a.5.5 0 0 1 0-1h2.7a.5.5 0 0 1 0 1zm-10.6 0h-2.7a.5.5 0 0 1 0-1h2.7a.5.5 0 0 1 0 1zm-10.6 0h-2.6a.5.5 0 0 1 0-1h2.6a.5.5 0 0 1 0 1zm-10.6 0h-2.6a.5.5 0 0 1 0-1h2.6a.5.5 0 0 1 0 1zm-10.6 0h-2.6a.5.5 0 0 1 0-1h2.6a.5.5 0 0 1 0 1zm-10.5 0h-2.7a.5.5 0 0 1 0-1h2.7a.5.5 0 0 1 0 1zm-10.6 0H64a.5.5 0 0 1 0-1h2.7a.5.5 0 0 1 0 1zm-10.6 0h-2.7a.5.5 0 0 1 0-1h2.7a.5.5 0 0 1 0 1zm-10.6 0H43a.5.5 0 0 1 0-1h2.6a.5.5 0 0 1 0 1zm-10.6 0h-2.6a.5.5 0 0 1 0-1h2.6a.5.5 0 0 1 0 1zm-10.6 0h-2.6a.5.5 0 0 1 0-1h2.6a.5.5 0 0 1 0 1zm-10.5 0H11a.5.5 0 0 1 0-1h2.7a.5.5 0 0 1 0 1zm-10.6 0H.5a.5.5 0 0 1 0-1h2.7a.5.5 0 0 1 0 1z"/><path fill="#e6e6e5" d="M172.5 6H170a.5.5 0 0 1 0-1h2.6a.5.5 0 0 1 0 1zM162 6h-2.6a.5.5 0 0 1 0-1h2.6a.5.5 0 0 1 0 1zm-10.6 0h-2.6a.5.5 0 0 1 0-1h2.6a.5.5 0 0 1 0 1zm-10.5 0H138a.5.5 0 0 1 0-1h2.7a.5.5 0 0 1 0 1zm-10.6 0h-2.7a.5.5 0 0 1 0-1h2.7a.5.5 0 0 1 0 1zm-10.6 0H117a.5.5 0 0 1 0-1h2.7a.5.5 0 0 1 0 1zM109 6h-2.6a.5.5 0 0 1 0-1h2.6a.5.5 0 0 1 0 1zM98.4 6h-2.6a.5.5 0 0 1 0-1h2.6a.5.5 0 0 1 0 1zM87.8 6h-2.6a.5.5 0 0 1 0-1h2.6a.5.5 0 0 1 0 1zM77.3 6h-2.7a.5.5 0 0 1 0-1h2.7a.5.5 0 0 1 0 1zM66.7 6H64a.5.5 0 0 1 0-1h2.7a.5.5 0 0 1 0 1zM56 6h-2.7a.5.5 0 0 1 0-1H56a.5.5 0 0 1 0 1zM45.5 6H43a.5.5 0 0 1 0-1h2.6a.5.5 0 0 1 0 1zM35 6h-2.6a.5.5 0 0 1 0-1H35a.5.5 0 0 1 0 1zM24.3 6h-2.6a.5.5 0 0 1 0-1h2.6a.5.5 0 0 1 0 1zM13.8 6H11a.5.5 0 0 1 0-1h2.7a.5.5 0 0 1 0 1zM3.2 6H.5a.5.5 0 0 1 0-1h2.7a.5.5 0 0 1 0 1z" opacity=".5"/><path fill="#e6e6e5" d="M167 20.1h-2.4a.5.5 0 0 1 0-1h2.4a.5.5 0 0 1 0 1zm-10.4 0H154a.5.5 0 0 1 0-1h2.6a.5.5 0 0 1 0 1zm-10.6 0h-2.6a.5.5 0 0 1 0-1h2.6a.5.5 0 0 1 0 1zm-10.5 0h-2.7a.5.5 0 0 1 0-1h2.7a.5.5 0 0 1 0 1zm-10.6 0h-2.7a.5.5 0 0 1 0-1h2.7a.5.5 0 0 1 0 1zm-10.6 0h-2.6a.5.5 0 0 1 0-1h2.6a.5.5 0 0 1 0 1zm-10.6 0h-2.6a.5.5 0 0 1 0-1h2.6a.5.5 0 0 1 0 1zm-10.6 0h-2.6a.5.5 0 0 1 0-1H93a.5.5 0 0 1 0 1zm-10.6 0H80a.5.5 0 0 1 0-1h2.6a.5.5 0 0 1 0 1zm-10.5 0h-2.7a.5.5 0 0 1 0-1H72a.5.5 0 0 1 0 1zm-10.6 0h-2.7a.5.5 0 0 1 0-1h2.7a.5.5 0 0 1 0 1zm-10.6 0h-2.6a.5.5 0 0 1 0-1h2.6a.5.5 0 0 1 0 1zm-10.6 0h-2.6a.5.5 0 0 1 0-1h2.6a.5.5 0 0 1 0 1zm-10.6 0H27a.5.5 0 0 1 0-1h2.6a.5.5 0 0 1 0 1zm-10.6 0h-2.6a.5.5 0 0 1 0-1H19a.5.5 0 0 1 0 1zm-10.5 0H5.8a.5.5 0 0 1 0-1h2.7a.5.5 0 0 1 0 1zm164 4.5H170a.5.5 0 0 1 0-1h2.6a.5.5 0 0 1 0 1zm-10.6 0h-2.6a.5.5 0 0 1 0-1h2.6a.5.5 0 0 1 0 1zm-10.6 0h-2.6a.5.5 0 0 1 0-1h2.6a.5.5 0 0 1 0 1zm-10.5 0H138a.5.5 0 0 1 0-1h2.7a.5.5 0 0 1 0 1zm-10.6 0h-2.7a.5.5 0 0 1 0-1h2.7a.5.5 0 0 1 0 1zm-10.6 0h-2.7a.5.5 0 0 1 0-1h2.7a.5.5 0 0 1 0 1zm-10.6 0h-2.6a.5.5 0 0 1 0-1h2.6a.5.5 0 0 1 0 1zm-10.6 0h-2.6a.5.5 0 0 1 0-1h2.6a.5.5 0 0 1 0 1zm-10.6 0h-2.6a.5.5 0 0 1 0-1h2.6a.5.5 0 0 1 0 1zm-10.5 0h-2.7a.5.5 0 0 1 0-1h2.7a.5.5 0 0 1 0 1zm-10.6 0H64a.5.5 0 0 1 0-1h2.7a.5.5 0 0 1 0 1zm-10.6 0h-2.7a.5.5 0 0 1 0-1h2.7a.5.5 0 0 1 0 1zm-10.6 0H43a.5.5 0 0 1 0-1h2.6a.5.5 0 0 1 0 1zm-10.6 0h-2.6a.5.5 0 0 1 0-1h2.6a.5.5 0 0 1 0 1zm-10.6 0h-2.6a.5.5 0 0 1 0-1h2.6a.5.5 0 0 1 0 1zm-10.5 0H11a.5.5 0 0 1 0-1h2.7a.5.5 0 0 1 0 1zm-10.6 0H.5a.5.5 0 0 1 0-1h2.7a.5.5 0 0 1 0 1zM167 29.1h-2.4a.5.5 0 0 1 0-1h2.4a.5.5 0 0 1 0 1zm-10.4 0H154a.5.5 0 0 1 0-1h2.6a.5.5 0 0 1 0 1zm-10.6 0h-2.6a.5.5 0 0 1 0-1h2.6a.5.5 0 0 1 0 1zm-10.5 0h-2.7a.5.5 0 0 1 0-1h2.7a.5.5 0 0 1 0 1zm-10.6 0h-2.7a.5.5 0 0 1 0-1h2.7a.5.5 0 0 1 0 1zm-10.6 0h-2.6a.5.5 0 0 1 0-1h2.6a.5.5 0 0 1 0 1zm-10.6 0h-2.6a.5.5 0 0 1 0-1h2.6a.5.5 0 0 1 0 1zm-10.6 0h-2.6a.5.5 0 0 1 0-1H93a.5.5 0 0 1 0 1zm-10.6 0H80a.5.5 0 0 1 0-1h2.6a.5.5 0 0 1 0 1zm-10.5 0h-2.7a.5.5 0 0 1 0-1H72a.5.5 0 0 1 0 1zm-10.6 0h-2.7a.5.5 0 0 1 0-1h2.7a.5.5 0 0 1 0 1zm-10.6 0h-2.6a.5.5 0 0 1 0-1h2.6a.5.5 0 0 1 0 1zm-10.6 0h-2.6a.5.5 0 0 1 0-1h2.6a.5.5 0 0 1 0 1zm-10.6 0H27a.5.5 0 0 1 0-1h2.6a.5.5 0 0 1 0 1zm-10.6 0h-2.6a.5.5 0 0 1 0-1H19a.5.5 0 0 1 0 1zm-10.5 0H5.8a.5.5 0 0 1 0-1h2.7a.5.5 0 0 1 0 1zm164 4.5H170a.5.5 0 0 1 0-1h2.6a.5.5 0 0 1 0 1zm-10.6 0h-2.6a.5.5 0 0 1 0-1h2.6a.5.5 0 0 1 0 1zm-10.6 0h-2.6a.5.5 0 0 1 0-1h2.6a.5.5 0 0 1 0 1zm-10.5 0H138a.5.5 0 0 1 0-1h2.7a.5.5 0 0 1 0 1zm-10.6 0h-2.7a.5.5 0 0 1 0-1h2.7a.5.5 0 0 1 0 1zm-10.6 0h-2.7a.5.5 0 0 1 0-1h2.7a.5.5 0 0 1 0 1zm-10.6 0h-2.6a.5.5 0 0 1 0-1h2.6a.5.5 0 0 1 0 1zm-10.6 0h-2.6a.5.5 0 0 1 0-1h2.6a.5.5 0 0 1 0 1zm-10.6 0h-2.6a.5.5 0 0 1 0-1h2.6a.5.5 0 0 1 0 1zm-10.5 0h-2.7a.5.5 0 0 1 0-1h2.7a.5.5 0 0 1 0 1zm-10.6 0H64a.5.5 0 0 1 0-1h2.7a.5.5 0 0 1 0 1zm-10.6 0h-2.7a.5.5 0 0 1 0-1h2.7a.5.5 0 0 1 0 1zm-10.6 0H43a.5.5 0 0 1 0-1h2.6a.5.5 0 0 1 0 1zm-10.6 0h-2.6a.5.5 0 0 1 0-1h2.6a.5.5 0 0 1 0 1zm-10.6 0h-2.6a.5.5 0 0 1 0-1h2.6a.5.5 0 0 1 0 1zm-10.5 0H11a.5.5 0 0 1 0-1h2.7a.5.5 0 0 1 0 1zm-10.6 0H.5a.5.5 0 0 1 0-1h2.7a.5.5 0 0 1 0 1zM167 38.1h-2.4a.5.5 0 0 1 0-1h2.4a.5.5 0 0 1 0 1zm-10.4 0H154a.5.5 0 0 1 0-1h2.6a.5.5 0 0 1 0 1zm-10.6 0h-2.6a.5.5 0 0 1 0-1h2.6a.5.5 0 0 1 0 1zm-10.5 0h-2.7a.5.5 0 0 1 0-1h2.7a.5.5 0 0 1 0 1zm-10.6 0h-2.7a.5.5 0 0 1 0-1h2.7a.5.5 0 0 1 0 1zm-10.6 0h-2.6a.5.5 0 0 1 0-1h2.6a.5.5 0 0 1 0 1zm-10.6 0h-2.6a.5.5 0 0 1 0-1h2.6a.5.5 0 0 1 0 1zm-10.6 0h-2.6a.5.5 0 0 1 0-1H93a.5.5 0 0 1 0 1zm-10.6 0H80a.5.5 0 0 1 0-1h2.6a.5.5 0 0 1 0 1zm-10.5 0h-2.7a.5.5 0 0 1 0-1H72a.5.5 0 0 1 0 1zm-10.6 0h-2.7a.5.5 0 0 1 0-1h2.7a.5.5 0 0 1 0 1zm-10.6 0h-2.6a.5.5 0 0 1 0-1h2.6a.5.5 0 0 1 0 1zm-10.6 0h-2.6a.5.5 0 0 1 0-1h2.6a.5.5 0 0 1 0 1zm-10.6 0H27a.5.5 0 0 1 0-1h2.6a.5.5 0 0 1 0 1zm-10.6 0h-2.6a.5.5 0 0 1 0-1H19a.5.5 0 0 1 0 1zm-10.5 0H5.8a.5.5 0 0 1 0-1h2.7a.5.5 0 0 1 0 1zm164 4.5H170a.5.5 0 0 1 0-1h2.6a.5.5 0 0 1 0 1zm-10.6 0h-2.6a.5.5 0 0 1 0-1h2.6a.5.5 0 0 1 0 1zm-10.6 0h-2.6a.5.5 0 0 1 0-1h2.6a.5.5 0 0 1 0 1zm-10.5 0H138a.5.5 0 0 1 0-1h2.7a.5.5 0 0 1 0 1zm-10.6 0h-2.7a.5.5 0 0 1 0-1h2.7a.5.5 0 0 1 0 1zm-10.6 0h-2.7a.5.5 0 0 1 0-1h2.7a.5.5 0 0 1 0 1zm-10.6 0h-2.6a.5.5 0 0 1 0-1h2.6a.5.5 0 0 1 0 1zm-10.6 0h-2.6a.5.5 0 0 1 0-1h2.6a.5.5 0 0 1 0 1zm-10.6 0h-2.6a.5.5 0 0 1 0-1h2.6a.5.5 0 0 1 0 1zm-10.5 0h-2.7a.5.5 0 0 1 0-1h2.7a.5.5 0 0 1 0 1zm-10.6 0H64a.5.5 0 0 1 0-1h2.7a.5.5 0 0 1 0 1zm-10.6 0h-2.7a.5.5 0 0 1 0-1h2.7a.5.5 0 0 1 0 1zm-10.6 0H43a.5.5 0 0 1 0-1h2.6a.5.5 0 0 1 0 1zm-10.6 0h-2.6a.5.5 0 0 1 0-1h2.6a.5.5 0 0 1 0 1zm-10.6 0h-2.6a.5.5 0 0 1 0-1h2.6a.5.5 0 0 1 0 1zm-10.5 0H11a.5.5 0 0 1 0-1h2.7a.5.5 0 0 1 0 1zm-10.6 0H.5a.5.5 0 0 1 0-1h2.7a.5.5 0 0 1 0 1zM167 47.1h-2.4a.5.5 0 0 1 0-1h2.4a.5.5 0 0 1 0 1zm-10.4 0H154a.5.5 0 0 1 0-1h2.6a.5.5 0 0 1 0 1zm-10.6 0h-2.6a.5.5 0 0 1 0-1h2.6a.5.5 0 0 1 0 1zm-10.5 0h-2.7a.5.5 0 0 1 0-1h2.7a.5.5 0 0 1 0 1zm-10.6 0h-2.7a.5.5 0 0 1 0-1h2.7a.5.5 0 0 1 0 1zm-10.6 0h-2.6a.5.5 0 0 1 0-1h2.6a.5.5 0 0 1 0 1zm-10.6 0h-2.6a.5.5 0 0 1 0-1h2.6a.5.5 0 0 1 0 1zm-10.6 0h-2.6a.5.5 0 0 1 0-1H93a.5.5 0 0 1 0 1zm-10.6 0H80a.5.5 0 0 1 0-1h2.6a.5.5 0 0 1 0 1zm-10.5 0h-2.7a.5.5 0 0 1 0-1H72a.5.5 0 0 1 0 1zm-10.6 0h-2.7a.5.5 0 0 1 0-1h2.7a.5.5 0 0 1 0 1zm-10.6 0h-2.6a.5.5 0 0 1 0-1h2.6a.5.5 0 0 1 0 1zm-10.6 0h-2.6a.5.5 0 0 1 0-1h2.6a.5.5 0 0 1 0 1zm-10.6 0H27a.5.5 0 0 1 0-1h2.6a.5.5 0 0 1 0 1zm-10.6 0h-2.6a.5.5 0 0 1 0-1H19a.5.5 0 0 1 0 1zm-10.5 0H5.8a.5.5 0 0 1 0-1h2.7a.5.5 0 0 1 0 1zm164 4.5H170a.5.5 0 0 1 0-1h2.6a.5.5 0 0 1 0 1zm-10.6 0h-2.6a.5.5 0 0 1 0-1h2.6a.5.5 0 0 1 0 1zm-10.6 0h-2.6a.5.5 0 0 1 0-1h2.6a.5.5 0 0 1 0 1zm-10.5 0H138a.5.5 0 0 1 0-1h2.7a.5.5 0 0 1 0 1zm-10.6 0h-2.7a.5.5 0 0 1 0-1h2.7a.5.5 0 0 1 0 1zm-10.6 0h-2.7a.5.5 0 0 1 0-1h2.7a.5.5 0 0 1 0 1zm-10.6 0h-2.6a.5.5 0 0 1 0-1h2.6a.5.5 0 0 1 0 1zm-10.6 0h-2.6a.5.5 0 0 1 0-1h2.6a.5.5 0 0 1 0 1zm-10.6 0h-2.6a.5.5 0 0 1 0-1h2.6a.5.5 0 0 1 0 1zm-10.5 0h-2.7a.5.5 0 0 1 0-1h2.7a.5.5 0 0 1 0 1zm-10.6 0H64a.5.5 0 0 1 0-1h2.7a.5.5 0 0 1 0 1zm-10.6 0h-2.7a.5.5 0 0 1 0-1h2.7a.5.5 0 0 1 0 1zm-10.6 0H43a.5.5 0 0 1 0-1h2.6a.5.5 0 0 1 0 1zm-10.6 0h-2.6a.5.5 0 0 1 0-1h2.6a.5.5 0 0 1 0 1zm-10.6 0h-2.6a.5.5 0 0 1 0-1h2.6a.5.5 0 0 1 0 1zm-10.5 0H11a.5.5 0 0 1 0-1h2.7a.5.5 0 0 1 0 1zm-10.6 0H.5a.5.5 0 0 1 0-1h2.7a.5.5 0 0 1 0 1zM167 56h-2.4a.5.5 0 0 1 0-1h2.4a.5.5 0 0 1 0 1zm-10.4 0H154a.5.5 0 0 1 0-1h2.6a.5.5 0 0 1 0 1zM146 56h-2.6a.5.5 0 0 1 0-1h2.6a.5.5 0 0 1 0 1zm-10.5 0h-2.7a.5.5 0 0 1 0-1h2.7a.5.5 0 0 1 0 1zm-10.6 0h-2.7a.5.5 0 0 1 0-1h2.7a.5.5 0 0 1 0 1zm-10.6 0h-2.6a.5.5 0 0 1 0-1h2.6a.5.5 0 0 1 0 1zm-10.6 0h-2.6a.5.5 0 0 1 0-1h2.6a.5.5 0 0 1 0 1zm-10.6 0h-2.6a.5.5 0 0 1 0-1H93a.5.5 0 0 1 0 1zm-10.6 0H80a.5.5 0 0 1 0-1h2.6a.5.5 0 0 1 0 1zM72 56h-2.7a.5.5 0 0 1 0-1H72a.5.5 0 0 1 0 1zm-10.6 0h-2.7a.5.5 0 0 1 0-1h2.7a.5.5 0 0 1 0 1zm-10.6 0h-2.6a.5.5 0 0 1 0-1h2.6a.5.5 0 0 1 0 1zm-10.6 0h-2.6a.5.5 0 0 1 0-1h2.6a.5.5 0 0 1 0 1zm-10.6 0H27a.5.5 0 0 1 0-1h2.6a.5.5 0 0 1 0 1zM19 56h-2.6a.5.5 0 0 1 0-1H19a.5.5 0 0 1 0 1zM8.5 56H5.8a.5.5 0 0 1 0-1h2.7a.5.5 0 0 1 0 1zm164 4.6H170a.5.5 0 0 1 0-1h2.6a.5.5 0 0 1 0 1zm-10.6 0h-2.6a.5.5 0 0 1 0-1h2.6a.5.5 0 0 1 0 1zm-10.6 0h-2.6a.5.5 0 0 1 0-1h2.6a.5.5 0 0 1 0 1zm-10.5 0H138a.5.5 0 0 1 0-1h2.7a.5.5 0 0 1 0 1zm-10.6 0h-2.7a.5.5 0 0 1 0-1h2.7a.5.5 0 0 1 0 1zm-10.6 0h-2.7a.5.5 0 0 1 0-1h2.7a.5.5 0 0 1 0 1zm-10.6 0h-2.6a.5.5 0 0 1 0-1h2.6a.5.5 0 0 1 0 1zm-10.6 0h-2.6a.5.5 0 0 1 0-1h2.6a.5.5 0 0 1 0 1zm-10.6 0h-2.6a.5.5 0 0 1 0-1h2.6a.5.5 0 0 1 0 1zm-10.5 0h-2.7a.5.5 0 0 1 0-1h2.7a.5.5 0 0 1 0 1zm-10.6 0H64a.5.5 0 0 1 0-1h2.7a.5.5 0 0 1 0 1zm-10.6 0h-2.7a.5.5 0 0 1 0-1h2.7a.5.5 0 0 1 0 1zm-10.6 0H43a.5.5 0 0 1 0-1h2.6a.5.5 0 0 1 0 1zm-10.6 0h-2.6a.5.5 0 0 1 0-1h2.6a.5.5 0 0 1 0 1zm-10.6 0h-2.6a.5.5 0 0 1 0-1h2.6a.5.5 0 0 1 0 1zm-10.5 0H11a.5.5 0 0 1 0-1h2.7a.5.5 0 0 1 0 1zm-10.6 0H.5a.5.5 0 0 1 0-1h2.7a.5.5 0 0 1 0 1zM167 65h-2.4a.5.5 0 0 1 0-1h2.4a.5.5 0 0 1 0 1zm-10.4 0H154a.5.5 0 0 1 0-1h2.6a.5.5 0 0 1 0 1zM146 65h-2.6a.5.5 0 0 1 0-1h2.6a.5.5 0 0 1 0 1zm-10.5 0h-2.7a.5.5 0 0 1 0-1h2.7a.5.5 0 0 1 0 1zm-10.6 0h-2.7a.5.5 0 0 1 0-1h2.7a.5.5 0 0 1 0 1zm-10.6 0h-2.6a.5.5 0 0 1 0-1h2.6a.5.5 0 0 1 0 1zm-10.6 0h-2.6a.5.5 0 0 1 0-1h2.6a.5.5 0 0 1 0 1zm-10.6 0h-2.6a.5.5 0 0 1 0-1H93a.5.5 0 0 1 0 1zm-10.6 0H80a.5.5 0 0 1 0-1h2.6a.5.5 0 0 1 0 1zM72 65h-2.7a.5.5 0 0 1 0-1H72a.5.5 0 0 1 0 1zm-10.6 0h-2.7a.5.5 0 0 1 0-1h2.7a.5.5 0 0 1 0 1zm-10.6 0h-2.6a.5.5 0 0 1 0-1h2.6a.5.5 0 0 1 0 1zm-10.6 0h-2.6a.5.5 0 0 1 0-1h2.6a.5.5 0 0 1 0 1zm-10.6 0H27a.5.5 0 0 1 0-1h2.6a.5.5 0 0 1 0 1zM19 65h-2.6a.5.5 0 0 1 0-1H19a.5.5 0 0 1 0 1zM8.5 65H5.8a.5.5 0 0 1 0-1h2.7a.5.5 0 0 1 0 1zm164 4.6H170a.5.5 0 0 1 0-1h2.6a.5.5 0 0 1 0 1zm-10.6 0h-2.6a.5.5 0 0 1 0-1h2.6a.5.5 0 0 1 0 1zm-10.6 0h-2.6a.5.5 0 0 1 0-1h2.6a.5.5 0 0 1 0 1zm-10.5 0H138a.5.5 0 0 1 0-1h2.7a.5.5 0 0 1 0 1zm-10.6 0h-2.7a.5.5 0 0 1 0-1h2.7a.5.5 0 0 1 0 1zm-10.6 0h-2.7a.5.5 0 0 1 0-1h2.7a.5.5 0 0 1 0 1zm-10.6 0h-2.6a.5.5 0 0 1 0-1h2.6a.5.5 0 0 1 0 1zm-10.6 0h-2.6a.5.5 0 0 1 0-1h2.6a.5.5 0 0 1 0 1zm-10.6 0h-2.6a.5.5 0 0 1 0-1h2.6a.5.5 0 0 1 0 1zm-10.5 0h-2.7a.5.5 0 0 1 0-1h2.7a.5.5 0 0 1 0 1zm-10.6 0H64a.5.5 0 0 1 0-1h2.7a.5.5 0 0 1 0 1zm-10.6 0h-2.7a.5.5 0 0 1 0-1h2.7a.5.5 0 0 1 0 1zm-10.6 0H43a.5.5 0 0 1 0-1h2.6a.5.5 0 0 1 0 1zm-10.6 0h-2.6a.5.5 0 0 1 0-1h2.6a.5.5 0 0 1 0 1zm-10.6 0h-2.6a.5.5 0 0 1 0-1h2.6a.5.5 0 0 1 0 1zm-10.5 0H11a.5.5 0 0 1 0-1h2.7a.5.5 0 0 1 0 1zm-10.6 0H.5a.5.5 0 0 1 0-1h2.7a.5.5 0 0 1 0 1z"/></svg>