<svg xmlns="http://www.w3.org/2000/svg" width="157" height="187" viewBox="0 0 41.5 49.5"><path fill="#33acb3" d="M23.8 40.8c0 .5-.3 1-.8 1H1c-.5 0-1.1-.5-1.1-1V1C0 .5.6 0 1.1 0H23c.5 0 .8.5.8 1z"/><path fill="#fff" stroke="#33acb3" stroke-miterlimit="10" stroke-width=".3" d="M22.6 37.4c0 .6-.1 1.1-.7 1.1H2.4c-.6 0-1.5-.5-1.5-1v-33c0-.6.9-1 1.5-1h19.5c.6 0 .7.4.7 1z"/><path fill="#b4b4b4" d="M1.4 38.3h19.7c.6 0 1.4 0 1.4-.7V4.3a1 1 0 0 0-.3-.7z" opacity=".1"/><path fill="#33acb3" d="M41.5 45c0 2.5-2 4.5-4.5 4.5H24.4c-2.5 0-4.6-2-4.6-4.5V12c0-2.6 2-4.6 4.6-4.6H37c2.5 0 4.5 2 4.5 4.5z"/><path fill="#fff" stroke="#33acb3" stroke-miterlimit="10" stroke-width=".3" d="M40.6 44.6c0 .6 0 1-.6 1H22c-.6 0-1.5-.4-1.5-1V12.5c0-.6 1-1 1.4-1H40c.6 0 .6.4.6 1zm-8.2 2.6c0 .5-.3.8-.8.8h-2.4a.8.8 0 0 1 0-1.6h2.4c.5 0 .8.4.8.8z"/><path fill="#fff" d="M19.6 21.7h8.7V27h-8.7z"/><path fill="#2b2c2b" d="M6.5 25.3v1h-1v-3.7h1V24l1-1.4h1.3l-1.3 1.5L9 26.3H7.7l-.9-1.4zm6.9-.8c0 1.2-.9 1.9-1.9 1.9-1 0-1.9-.7-1.9-2 0-1.1 1-1.8 2-1.8.9 0 1.8.7 1.8 1.9zm-2.7 0c0 .5.3 1 .8 1s.9-.5.9-1c0-.6-.4-1-.9-1s-.8.4-.8 1zm6.7 1.8l-2-1.8v1.8h-1v-3.7h.4l2 1.9v-1.9h1v3.7zm3.4-2.8v2.8h-1v-2.8h-1v-.9h3v1zm3 2.3l-.2.5h-1.2l1.7-3.7h.5l1.7 3.7H25l-.2-.5zm.5-1.6l-.2.8h.5zm3.9 1.1v1h-1v-3.7h1V24l1-1.4h1.3l-1.3 1.5 1.4 2.2h-1.2l-1-1.4zm5.1-1.8v2.8h-1v-2.8h-1v-.9h3v1z"/><path fill="#b4b4b4" d="M21.1 45.4l.5.1h17.8c.5 0 1-.1 1-.7V12.3l-.1-.7z" opacity=".1"/></svg>