<svg xmlns="http://www.w3.org/2000/svg" width="242" height="137" viewBox="0 0 64 36.2"><g transform="translate(-213.5 -55) scale(.26458)"><path fill="#33acb3" d="M813.6 344.8c-3.2 0-6.8-2-6.8-5.1V213.1c0-3 3.6-5.3 6.8-5.3h229.9a5 5 0 0 1 5.3 5.3v126.6c0 3-2 5-5.3 5H813.6z"/><path fill="#fff" stroke="#33acb3" stroke-miterlimit="10" d="M833 338.3c-3.5 0-6.7-1.5-6.7-4.8V220.3c0-3.3 3.2-8 6.6-8h190.8c3.5 0 4.6 4.7 4.6 8v113.2c0 3.3-1.1 4.8-4.6 4.8z"/><circle cx="816.8" cy="278.6" r="4.1" fill="#fff" stroke="#33acb3" stroke-miterlimit="10"/></g><path fill="none" stroke="#fff" stroke-linecap="round" stroke-miterlimit="10" stroke-width=".5" d="M61.1 12.7v11.1" opacity=".3"/><path fill="#2b2c2b" d="M22 18.5a2 2 0 0 1-2.1 2.1 2 2 0 0 1-2.2-2.1 2 2 0 0 1 2.2-2.2 2 2 0 0 1 2.1 2.2zm-3 0c0 .6.3 1 .9 1 .5 0 1-.4 1-1 0-.7-.5-1.1-1-1.1-.6 0-1 .4-1 1zm9.6 2v-2.1l-.8.9h-.4l-.8-1v2.2h-1.2v-4.2h.5l1.7 1.8 1.6-1.8h.6v4.2zm6.1.1l-2.3-2.1v2h-1.1v-4.2h.4l2.2 2.2v-2.1h1.2v4.2zm3.7-1.1h.7v1h-2.6v-1h.7v-2h-.7v-1.1h2.6v1h-.7zm3.3-1.5h1.6v.9h-1.6v.6h1.8v1h-3v-4.1h3v1h-1.8z"/><path fill="#b4b4b4" d="M4.9 33.5c.4.7 1 1.2 1.8 1.2h50c1 0 1.8-1.2 1.8-2.4V3.6c0-.5-.1-.9-.3-1.2a1923 1923 0 0 1-53.3 31z" opacity=".1"/></svg>