<?xml version="1.0" encoding="UTF-8" standalone="no"?>
<svg
   xmlns:dc="http://purl.org/dc/elements/1.1/"
   xmlns:cc="http://creativecommons.org/ns#"
   xmlns:rdf="http://www.w3.org/1999/02/22-rdf-syntax-ns#"
   xmlns:svg="http://www.w3.org/2000/svg"
   xmlns="http://www.w3.org/2000/svg"
   id="svg850"
   version="1.1"
   viewBox="0 0 51.989418 66.139496"
   height="66.139496mm"
   width="51.989418mm">
  <defs
     id="defs844" />
  <metadata
     id="metadata847">
    <rdf:RDF>
      <cc:Work
         rdf:about="">
        <dc:format>image/svg+xml</dc:format>
        <dc:type
           rdf:resource="http://purl.org/dc/dcmitype/StillImage" />
        <dc:title></dc:title>
      </cc:Work>
    </rdf:RDF>
  </metadata>
  <g
     transform="translate(-59.427911,-89.305252)"
     id="layer1">
    <g
       transform="matrix(0.26458333,0,0,0.26458333,52.372664,81.367752)"
       id="g18">
      <polygon
         style="fill:#dd0031"
         class="st0"
         points="31.9,63.2 46.1,186.3 125,230 203.9,186.3 218.1,63.2 125,30 "
         id="polygon12" />
      <polygon
         style="fill:#c3002f"
         class="st1"
         points="125,52.1 125,153.4 125,230 203.9,186.3 218.1,63.2 125,30 125,52.2 "
         id="polygon14" />
      <path
         style="fill:#ffffff"
         class="st2"
         d="M 125,52.1 66.8,182.6 v 0 h 21.7 v 0 l 11.7,-29.2 h 49.4 l 11.7,29.2 v 0 H 183 v 0 z m 17,83.3 h -34 l 17,-40.9 z"
         id="path16" />
    </g>
    <g
       id="text34"
       style="font-style:normal;font-variant:normal;font-weight:800;font-stretch:normal;font-size:10.58333302px;line-height:1.25;font-family:Sen;-inkscape-font-specification:'Sen, Ultra-Bold';font-variant-ligatures:normal;font-variant-caps:normal;font-variant-numeric:normal;font-feature-settings:normal;text-align:start;letter-spacing:0px;word-spacing:0px;writing-mode:lr-tb;text-anchor:start;fill:#a6120d;fill-opacity:1;stroke:none;stroke-width:0.26458332"
       aria-label="JS">
      <path
         id="path900"
         style="font-style:normal;font-variant:normal;font-weight:800;font-stretch:normal;font-size:10.58333302px;font-family:Sen;-inkscape-font-specification:'Sen, Ultra-Bold';font-variant-ligatures:normal;font-variant-caps:normal;font-variant-numeric:normal;font-feature-settings:normal;text-align:start;writing-mode:lr-tb;text-anchor:start;fill:#a6120d;fill-opacity:1;stroke-width:0.26458332"
         d="m 104.97844,145.85857 h -1.93269 v 6.3872 c 0,0.79582 -0.51677,1.30225 -1.51929,1.51929 l 0.64079,1.67432 c 1.66398,-0.34107 2.81119,-1.39527 2.81119,-3.12126 z" />
      <path
         id="path902"
         style="font-style:normal;font-variant:normal;font-weight:800;font-stretch:normal;font-size:10.58333302px;font-family:Sen;-inkscape-font-specification:'Sen, Ultra-Bold';font-variant-ligatures:normal;font-variant-caps:normal;font-variant-numeric:normal;font-feature-settings:normal;text-align:start;writing-mode:lr-tb;text-anchor:start;fill:#a6120d;fill-opacity:1;stroke-width:0.26458332"
         d="m 108.83351,145.72421 c -1.35393,0 -2.61483,0.79581 -2.61483,2.25309 0,0.83716 0.29972,1.66398 1.46761,2.03605 l 0.98185,0.31006 c 0.37207,0.11369 0.60978,0.25838 0.60978,0.46509 0,0.28939 -0.33073,0.39274 -0.80615,0.39274 -0.77515,0 -1.56063,-0.3514 -2.22209,-0.84749 v 1.87068 c 0.60979,0.43408 1.46762,0.75448 2.29444,0.75448 1.60197,0 2.87321,-0.95085 2.87321,-2.27376 0,-0.66146 -0.38241,-1.39527 -1.38493,-1.77767 l -0.74414,-0.27906 c -0.57878,-0.21704 -1.03353,-0.34106 -1.03353,-0.68213 0,-0.32039 0.38241,-0.44441 0.83716,-0.44441 0.78548,0 1.31258,0.29972 1.90169,0.64078 v -1.87068 c -0.48576,-0.33073 -1.35392,-0.54777 -2.16007,-0.54777 z" />
    </g>
    <g
       id="text4532"
       style="font-style:normal;font-variant:normal;font-weight:800;font-stretch:normal;font-size:10.58333302px;line-height:1.25;font-family:Sen;-inkscape-font-specification:'Sen, Ultra-Bold';font-variant-ligatures:normal;font-variant-caps:normal;font-variant-numeric:normal;font-feature-settings:normal;text-align:start;letter-spacing:0px;word-spacing:0px;writing-mode:lr-tb;text-anchor:start;fill:#000000;fill-opacity:1;stroke:none;stroke-width:0.26458332"
       aria-label="Angular">
      <path
         id="path885"
         style="font-style:normal;font-variant:normal;font-weight:800;font-stretch:normal;font-size:10.58333302px;font-family:Sen;-inkscape-font-specification:'Sen, Ultra-Bold';font-variant-ligatures:normal;font-variant-caps:normal;font-variant-numeric:normal;font-feature-settings:normal;text-align:start;writing-mode:lr-tb;text-anchor:start;stroke-width:0.26458332"
         d="m 64.213149,151.87907 0.341064,0.93018 h 2.253092 l -3.203938,-7.02799 H 62.63185 l -3.203939,7.02799 h 2.253092 l 0.341065,-0.93018 z m -0.578776,-1.55029 h -1.043864 l 0.527099,-1.42627 z" />
      <path
         id="path887"
         style="font-style:normal;font-variant:normal;font-weight:800;font-stretch:normal;font-size:10.58333302px;font-family:Sen;-inkscape-font-specification:'Sen, Ultra-Bold';font-variant-ligatures:normal;font-variant-caps:normal;font-variant-numeric:normal;font-feature-settings:normal;text-align:start;writing-mode:lr-tb;text-anchor:start;stroke-width:0.26458332"
         d="m 70.900079,147.38322 c -0.7028,0 -1.157552,0.38241 -1.488281,0.83716 v -0.68213 h -1.77767 v 5.271 h 1.77767 v -3.18327 c 0.186035,-0.27905 0.444417,-0.50643 0.826822,-0.50643 0.361736,0 0.7028,0.18604 0.7028,0.71314 l 0.01034,2.97656 h 1.777669 v -3.25562 c 0,-1.42626 -0.754475,-2.17041 -1.829345,-2.17041 z" />
      <path
         id="path889"
         style="font-style:normal;font-variant:normal;font-weight:800;font-stretch:normal;font-size:10.58333302px;font-family:Sen;-inkscape-font-specification:'Sen, Ultra-Bold';font-variant-ligatures:normal;font-variant-caps:normal;font-variant-numeric:normal;font-feature-settings:normal;text-align:start;writing-mode:lr-tb;text-anchor:start;stroke-width:0.26458332"
         d="m 76.140069,147.38322 c -1.281575,0 -2.377116,1.00253 -2.377116,2.7802 0,1.91202 1.095541,2.80086 2.273763,2.80086 0.754476,0 1.312582,-0.45475 1.570964,-1.03353 v 0.73381 c 0,0.60978 -0.630453,1.17822 -1.488281,1.17822 -0.857829,0 -1.405599,-0.24805 -2.056722,-0.5271 v 1.57096 c 0.702799,0.38241 1.343587,0.55811 2.222086,0.55811 1.62264,0 3.100586,-1.11621 3.100586,-2.79053 v -5.11597 H 77.60768 v 0.48576 c -0.341065,-0.37207 -0.919841,-0.64079 -1.467611,-0.64079 z m 0.372071,1.73633 c 0.39274,0 0.785481,0.18604 1.09554,0.43408 v 0.50643 c 0,0.76481 -0.599447,1.10588 -1.043864,1.10588 -0.568441,0 -0.940511,-0.43408 -0.940511,-1.00252 0,-0.55811 0.37207,-1.04387 0.888835,-1.04387 z" />
      <path
         id="path891"
         style="font-style:normal;font-variant:normal;font-weight:800;font-stretch:normal;font-size:10.58333302px;font-family:Sen;-inkscape-font-specification:'Sen, Ultra-Bold';font-variant-ligatures:normal;font-variant-caps:normal;font-variant-numeric:normal;font-feature-settings:normal;text-align:start;writing-mode:lr-tb;text-anchor:start;stroke-width:0.26458332"
         d="m 85.834567,147.53825 h -1.777669 l -0.01033,2.68718 c 0,0.72347 -0.206706,1.03353 -0.733806,1.03353 -0.527099,0 -0.733805,-0.31006 -0.733805,-1.03353 l -0.01033,-2.68718 h -1.777669 v 3.1626 c 0,1.42627 1.054199,2.26343 2.521809,2.26343 1.467611,0 2.52181,-0.83716 2.52181,-2.26343 z" />
      <path
         id="path893"
         style="font-style:normal;font-variant:normal;font-weight:800;font-stretch:normal;font-size:10.58333302px;font-family:Sen;-inkscape-font-specification:'Sen, Ultra-Bold';font-variant-ligatures:normal;font-variant-caps:normal;font-variant-numeric:normal;font-feature-settings:normal;text-align:start;writing-mode:lr-tb;text-anchor:start;stroke-width:0.26458332"
         d="m 89.0075,152.80925 v -7.44141 h -1.777669 v 7.44141 z" />
      <path
         id="path895"
         style="font-style:normal;font-variant:normal;font-weight:800;font-stretch:normal;font-size:10.58333302px;font-family:Sen;-inkscape-font-specification:'Sen, Ultra-Bold';font-variant-ligatures:normal;font-variant-caps:normal;font-variant-numeric:normal;font-feature-settings:normal;text-align:start;writing-mode:lr-tb;text-anchor:start;stroke-width:0.26458332"
         d="m 92.469821,147.38322 c -1.281575,0 -2.377116,1.00253 -2.377116,2.7802 0,1.91202 1.095541,2.80086 2.273763,2.80086 0.754476,0 1.312582,-0.45475 1.570964,-1.03353 v 0.8785 h 1.777669 v -5.271 h -1.777669 v 0.48576 c -0.341065,-0.37207 -0.919841,-0.64079 -1.467611,-0.64079 z m 0.372071,1.73633 c 0.39274,0 0.785481,0.18604 1.09554,0.43408 v 0.50643 c 0,0.76481 -0.599447,1.10588 -1.043864,1.10588 -0.568441,0 -0.940511,-0.43408 -0.940511,-1.00252 0,-0.55811 0.37207,-1.04387 0.888835,-1.04387 z" />
      <path
         id="path897"
         style="font-style:normal;font-variant:normal;font-weight:800;font-stretch:normal;font-size:10.58333302px;font-family:Sen;-inkscape-font-specification:'Sen, Ultra-Bold';font-variant-ligatures:normal;font-variant-caps:normal;font-variant-numeric:normal;font-feature-settings:normal;text-align:start;writing-mode:lr-tb;text-anchor:start;stroke-width:0.26458332"
         d="m 100.30397,147.4349 c -0.661461,0 -1.023196,0.48576 -1.353925,1.04386 v -0.94051 h -1.777669 v 5.271 h 1.777669 v -2.70785 c 0.237712,-0.46508 0.609782,-0.78548 1.095545,-0.78548 0.36173,0 0.59944,0.093 0.85782,0.24805 v -1.97404 c -0.1757,-0.093 -0.37207,-0.15503 -0.59944,-0.15503 z" />
    </g>
  </g>
  <style
     id="style10"
     type="text/css">
	.st0{fill:#DD0031;}
	.st1{fill:#C3002F;}
	.st2{fill:#FFFFFF;}
</style>
</svg>
