<?xml version="1.0" encoding="UTF-8" standalone="no"?>
<svg
   xmlns:dc="http://purl.org/dc/elements/1.1/"
   xmlns:cc="http://creativecommons.org/ns#"
   xmlns:rdf="http://www.w3.org/1999/02/22-rdf-syntax-ns#"
   xmlns:svg="http://www.w3.org/2000/svg"
   xmlns="http://www.w3.org/2000/svg"
   id="svg8"
   version="1.1"
   viewBox="0 0 49.265415 52.916664"
   height="52.916664mm"
   width="49.265415mm">
  <defs
     id="defs2" />
  <metadata
     id="metadata5">
    <rdf:RDF>
      <cc:Work
         rdf:about="">
        <dc:format>image/svg+xml</dc:format>
        <dc:type
           rdf:resource="http://purl.org/dc/dcmitype/StillImage" />
        <dc:title></dc:title>
      </cc:Work>
    </rdf:RDF>
  </metadata>
  <g
     transform="translate(-86.492292,-127.66667)"
     id="layer1">
    <g
       transform="matrix(0.26458333,0,0,0.26458333,78.052084,119.72917)"
       id="g4554">
      <polygon
         style="fill:#dd0031"
         class="st0"
         points="31.9,63.2 46.1,186.3 125,230 203.9,186.3 218.1,63.2 125,30 "
         id="polygon4548" />
      <polygon
         style="fill:#c3002f"
         class="st1"
         points="125,52.1 125,153.4 125,230 203.9,186.3 218.1,63.2 125,30 125,52.2 "
         id="polygon4550" />
      <path
         style="fill:#ffffff"
         class="st2"
         d="M 125,52.1 66.8,182.6 v 0 h 21.7 v 0 l 11.7,-29.2 h 49.4 l 11.7,29.2 v 0 H 183 v 0 z m 17,83.3 h -34 l 17,-40.9 z"
         id="path4552" />
    </g>
    <g
       id="text4570"
       style="font-style:normal;font-weight:normal;font-size:17.80437088px;line-height:1.25;font-family:sans-serif;letter-spacing:0px;word-spacing:0px;fill:#000000;fill-opacity:1;stroke:none;stroke-width:0.44510925"
       aria-label="4">
      <path
         id="path841"
         style="font-style:normal;font-variant:normal;font-weight:800;font-stretch:normal;font-size:17.80437088px;font-family:Sen;-inkscape-font-specification:'Sen, Ultra-Bold';font-variant-ligatures:normal;font-variant-caps:normal;font-variant-numeric:normal;font-feature-settings:normal;text-align:start;writing-mode:lr-tb;text-anchor:start;fill:#ffffff;stroke-width:0.44510925"
         d="m 129.33192,144.99316 v -6.46799 h -2.45158 c -1.65178,2.72977 -3.11229,4.74667 -4.93793,6.81574 v 2.26032 h 4.48586 v 2.57328 h 2.90365 v -2.57328 h 1.3388 v -2.60807 z m -2.90365,0 h -1.078 c 0.43468,-0.55638 0.60855,-0.86935 1.078,-1.53006 z" />
    </g>
  </g>
  <style
     id="style4546"
     type="text/css">
	.st0{fill:#DD0031;}
	.st1{fill:#C3002F;}
	.st2{fill:#FFFFFF;}
</style>
</svg>
