<svg xmlns="http://www.w3.org/2000/svg" width="392" height="250" viewBox="0 0 103.7 66.1"><path fill="#33acb3" d="M103.7 53.4c0 2-1.7 3.8-3.8 3.8H3.8A3.8 3.8 0 0 1 0 53.4V3.8C0 1.7 1.7 0 3.8 0h96.1c2.1 0 3.8 1.7 3.8 3.8z"/><path fill="none" stroke="#33acb3" stroke-linecap="round" stroke-miterlimit="10" stroke-width="2.4" d="M28.3 65h47.4m-27.8-4.3h8.7"/><path fill="#fff" d="M101.6 49c0 1.8-1.4 3.1-3.4 3.1H5.8c-2 0-4-1.3-4-3V7.4c0-1.7 2-3.3 4-3.3h92.4c2 0 3.4 1.6 3.4 3.3V49z"/><path fill="#33acb3" d="M40.7 33.8h-2.4v-3h-3v3H33v-8.3h2.4v3.3h3v-3.3h2.3zm8-2.6h-4.3c.2.6.8 1 1.5 1a4 4 0 0 0 2-.5v1.8a4 4 0 0 1-2 .5c-1.9 0-3.6-1.3-3.6-3.3 0-1.9 1.5-3.4 3.4-3.4 1.8 0 3 1.2 3 3.2v.7zm-2-1.2c0-.6-.5-1-1-1-.6 0-1 .4-1.2 1zm3.3 3.8v-9h2.2v9zm4 0v-9h2.2v9zm10.5-3.2a3.5 3.5 0 0 1-6.9 0c0-2 1.7-3.3 3.4-3.3 1.8 0 3.5 1.4 3.5 3.3zm-4.6 0c0 1.1.7 1.3 1.1 1.3.5 0 1.2-.2 1.2-1.3 0-1-.7-1.3-1.2-1.3-.4 0-1.1.3-1.1 1.3zm8.4 2.4c0 .5-.5 1-1.1 1-.6 0-1.1-.5-1.1-1 0-.7.5-1.2 1-1.2.7 0 1.2.5 1.2 1.1zm-2-2.2v-5.3H68v5.3z" opacity=".7"/><path fill="#b4b4b4" d="M5.6 51a4 4 0 0 0 3.2 2h91.6c2 0 3.3-2 3.3-3.8V5.4c0-.7-.1-1.3-.5-1.8C85.5 13 29.2 40 5.6 51z" opacity=".1"/><path fill="none" stroke="#fff" stroke-linecap="round" stroke-miterlimit="10" stroke-width=".5" d="M50 54.8h5" opacity=".4"/></svg>