<svg xmlns="http://www.w3.org/2000/svg" width="332" height="217" viewBox="0 0 87.8 57.4"><path fill="#33acb3" d="M87.8 56.3c0 .5-1.2 1.1-2.8 1.1H2.9c-1.6 0-2.9-.6-2.9-1l4.8-12.1c0-.5 1.3-1 3-1h73c1.7 0 3 .5 3 1z"/><path fill="#33acb3" d="M83.4 40.5c0 1.6-1.3 2.9-2.9 2.9h-73a2.9 2.9 0 0 1-3-2.9V2.9A3.2 3.2 0 0 1 7.6 0h73a3 3 0 0 1 3 2.9z"/><path fill="#fff" d="M82 38.5c0 1.4-1 2.8-2.5 2.8H8.9c-1.6 0-3-1.4-3-2.8V4.7c0-1.4 1.4-2.3 3-2.3h70.6c1.5 0 2.6 1 2.6 2.3z"/><path fill="#b4b4b4" d="M7.2 39.8a3 3 0 0 0 2.5 1.5h70.6c1.5 0 2.6-1.4 2.6-2.8V4.7c0-.5-.2-1-.5-1.4-13.6 7.3-57 28-75.2 36.5z" opacity=".1"/><path fill="#2b2c2b" d="M20 17.5c1.2 0 2.5.8 2.5 2.3 0 1.5-1.2 2.3-2.4 2.3l-1-.2v1.8h-1.8v-6.2zm.7 2.3c0-.5-.4-.7-1-.7H19v1.4l.7.2c.6 0 1-.4 1-.9zm5.3 1.4v2.5h-1.8v-6.2h2.6c1.3 0 2.6.7 2.6 2.1 0 1-.6 1.6-1.4 1.8l1.7 2.3h-2zm0-1l.6.2c.6 0 1-.2 1-.7 0-.5-.4-.6-1-.6H26zm11.2.4c0 2-1.5 3.2-3.2 3.2a3.1 3.1 0 0 1-3.2-3.2c0-2 1.5-3.3 3.2-3.3 1.7 0 3.2 1.2 3.2 3.3zm-4.6 0c0 1 .6 1.6 1.4 1.6.8 0 1.5-.7 1.5-1.6 0-1-.7-1.6-1.5-1.6s-1.4.6-1.4 1.6zm8.4 2.7c0 1.5-1 2.5-2.5 2.8l-.6-1.5c.9-.2 1.4-.7 1.4-1.4v-5.8H41v5.9zm3.9-3.4h2.5v1.3h-2.5v1h2.8v1.5h-4.5v-6.2h4.5v1.4h-2.8zm6.7 2.1v1.7h-1.8v-6.2h1.8v2.3l1.9-2.3h2L53.4 20l2.6 3.7h-2.2l-1.5-2.3zm8.8-3v4.7h-1.7V19h-1.8v-1.5h5.4V19zm6.9 4.7h-1.7v-2.2l-2.4-4h2l1.3 2.3 1.2-2.3h2l-2.4 4z"/></svg>