<?xml version="1.0" encoding="UTF-8" standalone="no"?>
<svg
   xmlns:dc="http://purl.org/dc/elements/1.1/"
   xmlns:cc="http://creativecommons.org/ns#"
   xmlns:rdf="http://www.w3.org/1999/02/22-rdf-syntax-ns#"
   xmlns:svg="http://www.w3.org/2000/svg"
   xmlns="http://www.w3.org/2000/svg"
   id="svg8"
   version="1.1"
   viewBox="0 0 100 100"
   height="100mm"
   width="100mm">
  <defs
     id="defs2" />
  <metadata
     id="metadata5">
    <rdf:RDF>
      <cc:Work
         rdf:about="">
        <dc:format>image/svg+xml</dc:format>
        <dc:type
           rdf:resource="http://purl.org/dc/dcmitype/StillImage" />
        <dc:title></dc:title>
      </cc:Work>
    </rdf:RDF>
  </metadata>
  <g
     transform="translate(0,-197)"
     id="layer1">
    <path
       id="rect815"
       transform="matrix(0.26458333,0,0,0.26458333,0,197)"
       d="M 127.78906 32.078125 C 126.87967 32.078125 126.14648 32.809353 126.14648 33.71875 L 126.14648 127.00195 L 35.863281 127.00195 C 34.953884 127.00195 34.222656 127.73318 34.222656 128.64258 L 34.222656 135.46094 C 34.222656 136.37033 34.953884 137.10352 35.863281 137.10352 L 126.14648 137.10352 L 126.14648 247.375 L 35.322266 247.375 C 34.412869 247.375 33.681641 248.10623 33.681641 249.01562 L 33.681641 255.83398 C 33.681641 256.74338 34.412869 257.47656 35.322266 257.47656 L 126.14648 257.47656 L 126.14648 338.53125 C 126.14648 339.44065 126.87967 340.17383 127.78906 340.17383 L 134.60742 340.17383 C 135.51682 340.17383 136.24805 339.44065 136.24805 338.53125 L 136.24805 257.47656 L 234.52148 257.47656 L 234.52148 341.07422 C 234.52148 341.98362 235.25271 342.71484 236.16211 342.71484 L 242.98047 342.71484 C 243.88987 342.71484 244.62305 341.98362 244.62305 341.07422 L 244.62305 257.47656 L 340.13672 257.47656 C 341.04612 257.47656 341.77734 256.74338 341.77734 255.83398 L 341.77734 249.01562 C 341.77734 248.10623 341.04612 247.375 340.13672 247.375 L 244.62305 247.375 L 244.62305 137.10352 L 340.67773 137.10352 C 341.58713 137.10352 342.31836 136.37033 342.31836 135.46094 L 342.31836 128.64258 C 342.31836 127.73318 341.58713 127.00195 340.67773 127.00195 L 244.62305 127.00195 L 244.62305 36.259766 C 244.62305 35.350369 243.88987 34.619141 242.98047 34.619141 L 236.16211 34.619141 C 235.25271 34.619141 234.52148 35.350369 234.52148 36.259766 L 234.52148 127.00195 L 136.24805 127.00195 L 136.24805 33.71875 C 136.24805 32.809353 135.51682 32.078125 134.60742 32.078125 L 127.78906 32.078125 z M 136.24805 137.10352 L 234.52148 137.10352 L 234.52148 247.375 L 136.24805 247.375 L 136.24805 137.10352 z "
       style="fill:#000000;fill-opacity:1;stroke:#000000;stroke-width:0.62362206;stroke-miterlimit:4;stroke-dasharray:none;stroke-opacity:0.2" />
    <circle
       r="7.5595236"
       cy="217.05804"
       cx="20.599703"
       id="path850"
       style="fill:none;fill-opacity:1;stroke:#bc2929;stroke-width:2;stroke-miterlimit:4;stroke-dasharray:none;stroke-opacity:1" />
    <path
       id="rect815-4-4"
       d="m 54.411295,240.39629 c -0.02782,-0.008 -0.0476,-0.008 -0.05768,0.002 l -5.678691,6.00119 -5.348734,-5.99189 c -0.03908,-0.0438 -0.244149,0.0756 -0.459578,0.26793 l -1.615041,1.442 c -0.215429,0.19231 -0.357247,0.38231 -0.318169,0.42609 l 5.528595,6.19347 -5.62721,5.94662 c -0.04033,0.0426 0.09602,0.2369 0.305766,0.43539 l 1.572244,1.48851 c 0.209749,0.1985 0.411183,0.32358 0.451519,0.28096 l 5.441766,-5.75001 5.42502,6.07748 c 0.03908,0.0438 0.244151,-0.0756 0.45958,-0.26793 l 1.615038,-1.442 c 0.215429,-0.19231 0.357247,-0.38231 0.318172,-0.42608 l -5.605505,-6.27968 5.864753,-6.19719 c 0.04034,-0.0426 -0.09602,-0.2369 -0.305766,-0.43539 l -1.572244,-1.4879 c -0.157312,-0.14887 -0.310363,-0.25681 -0.393835,-0.28343 z"
       style="fill:#4176bb;fill-opacity:1;stroke:none;stroke-width:0.08926728;stroke-miterlimit:4;stroke-dasharray:none;stroke-opacity:0.2" />
    <circle
       r="7.5595236"
       cy="249.186"
       cx="78.808037"
       id="path850-1"
       style="fill:none;fill-opacity:1;stroke:#bc2929;stroke-width:2;stroke-miterlimit:4;stroke-dasharray:none;stroke-opacity:1" />
    <path
       id="rect815-4-4-9"
       d="m 25.874056,267.98879 c -0.02782,-0.008 -0.0476,-0.008 -0.05768,0.002 l -5.678691,6.00119 -5.348734,-5.99189 c -0.03908,-0.0438 -0.244149,0.0756 -0.459578,0.26793 l -1.615041,1.442 c -0.215429,0.19231 -0.357247,0.38231 -0.318169,0.42609 l 5.528595,6.19347 -5.62721,5.94662 c -0.04033,0.0426 0.09602,0.2369 0.305766,0.43539 l 1.572244,1.48851 c 0.209749,0.1985 0.411183,0.32358 0.451519,0.28096 l 5.441766,-5.75001 5.42502,6.07748 c 0.03908,0.0438 0.244151,-0.0756 0.45958,-0.26793 l 1.615038,-1.442 c 0.215429,-0.19231 0.357247,-0.38231 0.318172,-0.42608 l -5.605505,-6.27968 5.864754,-6.19719 c 0.04034,-0.0426 -0.09602,-0.2369 -0.305766,-0.43539 l -1.572245,-1.4879 c -0.157312,-0.14887 -0.310362,-0.25681 -0.393835,-0.28343 z"
       style="fill:#4176bb;fill-opacity:1;stroke:none;stroke-width:0.08926728;stroke-miterlimit:4;stroke-dasharray:none;stroke-opacity:0.2" />
    <circle
       r="7.5595236"
       cy="217.81398"
       cx="77.674103"
       id="path850-1-4"
       style="fill:none;fill-opacity:1;stroke:#bc2929;stroke-width:2;stroke-miterlimit:4;stroke-dasharray:none;stroke-opacity:1" />
  </g>
</svg>
