<svg xmlns="http://www.w3.org/2000/svg" height="157.564" viewBox="0 0 122.498 157.564" width="122.498" class="rails">
    <path fill="#ff2121" d="M13.321 119.545v23.156h5.906v-6.031l5.375 5.375h9.062l-7.188-7.188c0 0 5.171-0.084 5.562-7.562 0-6.861-5.177-7.75-11.156-7.75H13.321zM19.508 125.826h5.094v4.125h-5.094V125.826z" class="rails"/>
    <path fill="#ff2121" d="M45.071 119.639c-3.234-0.019-7.719 0.281-7.719 6.375v16.094h6.062v-3.938h5.875v3.844h6.094v-16.875c0-5.293-5.881-5.5-9.031-5.5C45.958 119.639 45.533 119.642 45.071 119.639zM43.508 125.451h5.688v6.344h-5.688V125.451z" class="rails"/>
    <rect fill="#ff2121" height="22.152" width="6.272" x="61.457" y="119.654" class="rails"/>
    <path fill="#ff2121" d="M74.298 119.948v22.152h15.094v-5.881h-8.919v-16.369L74.298 119.948z" class="rails"/>
    <path fill="#ff2121" d="M109.388 119.752v5.979h-10.096v2.156c0 0 2.059 0 4.312 0s6.959-0.098 6.959 6.96c0 7.057-3.234 7.449-9.801 7.449 -6.568 0-7.939 0-7.939 0v-5.392c0 0 6.371 0 9.115 0s2.896-0.894 2.896-1.672 -1.403-1.141-4.257-1.141 -8.146-1.402-8.146-6.891c0-5.489 2.744-7.548 8.233-7.548S109.388 119.752 109.388 119.752L109.388 119.752z" class="rails"/>
    <path fill="#ff2121" d="M18.819 112.989h52.146c0 0-11.566-26.269-8.626-50.381 2.941-24.112 21.956-35.091 32.738-36.267 10.781-1.177 16.663 5.489 16.663 5.489l2.353-3.529c0 0-15.487-15.683-35.091-13.918 -19.604 1.764-33.13 14.702-41.559 30.385 -8.43 15.684-13.331 26.661-16.663 43.128S18.819 112.989 18.819 112.989z" class="rails"/>
    <path fill="#ff2121" d="M8.43 86.72l10.194 0.784 -1.765 10.193 -9.605-1.176L8.43 86.72z" class="rails"/>
    <path fill="#ff2121" d="M24.505 65.156l2.745-7.645 -9.018-3.529 -2.94 8.233L24.505 65.156z" class="rails"/>
    <path fill="#ff2121" d="M37.247 38.887l5.293-6.272 -6.861-4.509 -5.489 6.076L37.247 38.887z" class="rails"/>
    <path fill="#ff2121" d="M51.165 14.579l4.705 5.685 6.469-3.725 -4.705-5.293L51.165 14.579z" class="rails"/>
    <path fill="#ff2121" d="M74.102 8.11l1.176 5.686 8.038-0.196 -0.785-5.097L74.102 8.11z" class="rails"/>
    <path fill="#ff2121" d="M101.351 14.187l-0.196 3.528 5.489 2.94 1.176-1.764L101.351 14.187z" class="rails"/>
    <path fill="#ff2121" d="M100.174 29.282v2.94l5.293 0.588v-2.353L100.174 29.282z" class="rails"/>
    <path fill="#ff2121" d="M83.316 31.83l2.548 4.704 3.725-2.94 -0.784-3.137L83.316 31.83z" class="rails"/>
    <path fill="#ff2121" d="M75.277 37.908l3.921 5.881 -2.353 4.116 -5.685-6.272L75.277 37.908z" class="rails"/>
    <path fill="#ff2121" d="M67.437 54.178l-2.549 5.097 6.665 5.686 1.568-6.47L67.437 54.178z" class="rails"/>
    <path fill="#ff2121" d="M64.692 72.017l-0.392 6.861 8.233 3.529 -0.392-6.47L64.692 72.017z" class="rails"/>
    <path fill="#ff2121" d="M67.044 96.326l1.961 7.058 10.389 0.588 -3.725-7.646H67.044z" class="rails"/>
</svg>